<svg width="15" height="15" viewBox="0 0 15 15" fill="none" xmlns="http://www.w3.org/2000/svg">
<path d="M14.25 1.74999H0.75C0.335801 1.74999 0 2.08576 0 2.49999V12.5C0 12.9142 0.335772 13.25 0.75 13.25H14.25C14.6642 13.25 15 12.9142 15 12.5V2.49999C15 2.08579 14.6642 1.74999 14.25 1.74999ZM14.5 12.5C14.5 12.6381 14.3881 12.75 14.25 12.75H0.75C0.611924 12.75 0.50001 12.6381 0.50001 12.5V2.49999C0.50001 2.36192 0.611924 2.25 0.75 2.25H14.25C14.3881 2.25 14.5 2.36192 14.5 2.49999V12.5Z" fill="black"/>
<path d="M13.7718 2.75092C13.7057 2.74515 13.6401 2.76586 13.5893 2.80852L7.82175 7.65349C7.63575 7.80984 7.36425 7.80984 7.17825 7.65349L1.41078 2.80849C1.34237 2.75107 1.2485 2.73448 1.16456 2.76501C1.08063 2.79554 1.01934 2.86855 1.00381 2.95652C0.988285 3.0445 1.02086 3.13406 1.08927 3.19149L6.85677 8.03622C7.22849 8.3492 7.77154 8.3492 8.14328 8.03622L13.9108 3.19151C13.9616 3.14889 13.9933 3.08783 13.9991 3.02177C14.0049 2.9557 13.9841 2.89005 13.9415 2.83928C13.8989 2.78845 13.8378 2.75669 13.7718 2.75092Z" fill="black"/>
<path d="M4.80832 8.00186C4.71981 7.98211 4.62759 8.01182 4.56723 8.07949L1.06722 11.8295C1.00389 11.8944 0.980623 11.9885 1.00646 12.0754C1.0323 12.1623 1.10317 12.2284 1.19165 12.2481C1.28015 12.2679 1.37238 12.2382 1.43273 12.1705L4.93274 8.42048C4.99608 8.35562 5.01934 8.26152 4.9935 8.17462C4.96766 8.08773 4.89682 8.0216 4.80832 8.00186Z" fill="black"/>
<path d="M10.4327 8.07949C10.3724 8.01182 10.2802 7.98211 10.1916 8.00186C10.1031 8.0216 10.0323 8.08773 10.0065 8.17462C9.98062 8.26155 10.0039 8.35562 10.0672 8.42048L13.5672 12.1705C13.6622 12.2677 13.8173 12.2713 13.9167 12.1786C14.016 12.0859 14.0232 11.9309 13.9327 11.8295L10.4327 8.07949Z" fill="black"/>
</svg>
