<svg width="32" height="32" viewBox="0 0 32 32" fill="none" xmlns="http://www.w3.org/2000/svg">
<path d="M27.6143 16.1675H25.9822C25.9822 10.8414 21.6504 6.5105 16.3272 6.5105L16.3262 4.88043C22.5516 4.87749 27.6143 9.94208 27.6143 16.1675ZM16.3262 7.69583L16.3252 9.3259C20.0997 9.3259 23.1659 12.395 23.1639 16.1665L24.7959 16.1656C24.7959 11.4957 20.999 7.69583 16.3262 7.69583ZM16 0C7.17664 0 0 7.17664 0 16.001C0 24.8234 7.17664 32 16 32C16.5456 32 16.9865 31.5592 16.9865 31.0145C16.9865 30.4669 16.5456 30.0251 16 30.0251C8.26499 30.0251 1.97392 23.7321 1.97392 16.001C1.97392 8.26596 8.26499 1.97392 16 1.97392C23.735 1.97392 30.0251 8.26694 30.0251 16.001C30.0251 19.2327 28.3049 22.4351 25.8431 23.7928C24.9488 24.2846 23.9789 24.5285 22.9445 24.5383C23.5655 24.169 24.1033 23.6694 24.503 23.0405C24.5814 22.9219 24.6852 22.8171 24.7362 22.6888C25.0575 21.9159 25.0859 21.0391 25.2799 20.2221C25.5179 19.1798 20.7168 17.1432 20.2995 18.4451C20.1487 18.9271 19.9175 20.4514 19.6148 20.853C19.3454 21.2115 18.6812 21.0411 18.2658 20.6884C17.1716 19.7558 15.95 18.3854 14.8783 17.3019L14.8803 17.3009C14.8529 17.2725 14.8196 17.2412 14.7902 17.2108C14.7598 17.1824 14.7294 17.1501 14.6991 17.1207V17.1226C13.6156 16.049 12.2442 14.8303 11.3126 13.7342C10.9599 13.3188 10.7894 12.6546 11.148 12.3852C11.5496 12.0806 13.0739 11.8533 13.5559 11.7005C14.8548 11.2851 12.8212 6.48111 11.7769 6.72014C10.9619 6.91116 10.0851 6.94251 9.31219 7.26186C9.18092 7.3177 9.07904 7.4186 8.96051 7.49697C6.21858 9.2348 5.86494 13.455 8.54123 16.5995C9.56101 17.8025 10.6249 18.9663 11.7201 20.1026L11.7142 20.1065C11.7446 20.1369 11.7759 20.1653 11.8073 20.1947C11.8366 20.2251 11.8651 20.2554 11.8935 20.2878L11.8993 20.2819C13.0357 21.3771 14.3827 22.9905 16.5711 24.4501C21.1782 27.5271 24.7136 26.668 26.7963 25.5257C30.3915 23.5459 32 19.317 32 16.0049C32 7.17664 24.8224 0 16 0Z" fill="white"/>
</svg>
