<svg width="18" height="17" viewBox="0 0 18 17" fill="none" xmlns="http://www.w3.org/2000/svg">
<g clip-path="url(#clip0_12_143)">
<path d="M17.972 5.31019C17.7227 2.57892 15.7812 0.597327 13.3514 0.597327C11.7326 0.597327 10.2505 1.4647 9.41644 2.85486C8.58998 1.44672 7.16855 0.597 5.57572 0.597C3.14625 0.597 1.20438 2.57859 0.955491 5.30987C0.93579 5.43051 0.855015 6.06543 1.10062 7.10086C1.45458 8.59433 2.27218 9.95277 3.46442 11.0284L9.4125 16.403L15.4627 11.0287C16.6549 9.95277 17.4725 8.59465 17.8265 7.10086C18.0721 6.06576 17.9913 5.43084 17.972 5.31019ZM17.1872 6.95112C16.8641 8.31512 16.1151 9.55782 15.0234 10.5426L9.41644 15.5235L3.90573 10.5439C2.81199 9.55717 2.06335 8.31479 1.73992 6.95079C1.50745 5.97094 1.603 5.41743 1.60333 5.41384L1.60825 5.38081C1.82168 2.98793 3.49003 1.25088 5.57572 1.25088C7.1147 1.25088 8.46948 2.19248 9.11239 3.70785L9.4148 4.42157L9.71721 3.70785C10.3499 2.21569 11.7763 1.25121 13.3517 1.25121C15.4371 1.25121 17.1058 2.98825 17.3235 5.4122C17.3241 5.41743 17.4197 5.97127 17.1872 6.95112Z" fill="black"/>
</g>
<defs>
<clipPath id="clip0_12_143">
<rect width="17.0733" height="17" fill="white" transform="translate(0.926758)"/>
</clipPath>
</defs>
</svg>
