<svg width="15" height="15" viewBox="0 0 15 15" fill="none" xmlns="http://www.w3.org/2000/svg">
<g clip-path="url(#clip0_12_129)">
<path d="M13.109 12.4712C14.2841 11.1468 15 9.40578 15 7.5C15 5.51716 14.2252 3.71302 12.9641 2.37052V2.37026C12.9631 2.36871 12.9616 2.36819 12.9608 2.3669C11.6472 0.970603 9.8069 0.0768103 7.75991 0.00672414L7.75965 0.00646552L7.61353 0.00258621C7.57578 0.0012931 7.53802 0 7.5 0C7.46198 0 7.42422 0.0012931 7.38647 0.00258621L7.24086 0.00646552L7.2406 0.00672414C5.19362 0.0768103 3.35328 0.970603 2.03974 2.3669C2.03871 2.36819 2.03716 2.36871 2.03638 2.37026C2.03638 2.37026 2.03638 2.37052 2.03612 2.37078C0.774828 3.71302 0 5.51716 0 7.5C0 9.40578 0.715862 11.1468 1.89103 12.4712C1.89259 12.4735 1.89259 12.4761 1.8944 12.4784C1.89905 12.4849 1.90578 12.488 1.91069 12.494C3.23121 13.9702 5.12586 14.9211 7.24034 14.9935L7.2406 14.9938L7.38621 14.9977C7.42422 14.9987 7.46198 15 7.5 15C7.53802 15 7.57578 14.9987 7.61353 14.9974L7.75914 14.9935L7.7594 14.9933C9.87621 14.9206 11.7729 13.9678 13.0934 12.4885C13.0968 12.4841 13.1022 12.4828 13.1053 12.4782C13.1074 12.4761 13.1074 12.4735 13.109 12.4712ZM0.523707 7.75862H3.62793C3.65716 8.85491 3.87129 9.92017 4.2525 10.9182C3.51698 11.1843 2.81379 11.5412 2.15483 11.9866C1.18578 10.8339 0.582672 9.36465 0.523707 7.75862ZM2.29603 2.85078C2.93948 3.26922 3.62457 3.6044 4.33914 3.85474C3.90155 4.9169 3.65948 6.06207 3.62793 7.24138H0.523707C0.585517 5.55853 1.24448 4.02621 2.29603 2.85078ZM14.4763 7.24138H11.3721C11.3405 6.06207 11.0984 4.9169 10.6609 3.85474C11.3754 3.6044 12.0605 3.26922 12.704 2.85078C13.7555 4.02621 14.4145 5.55853 14.4763 7.24138ZM7.24138 3.86974C6.49371 3.84853 5.75974 3.73707 5.0506 3.53793C5.57483 2.46259 6.315 1.49198 7.24138 0.683793V3.86974ZM7.24138 4.38698V7.24138H4.14517C4.17698 6.1169 4.41284 5.02629 4.83465 4.01509C5.61207 4.24034 6.41922 4.365 7.24138 4.38698ZM7.75862 4.38698C8.58078 4.365 9.38793 4.2406 10.1656 4.01509C10.5874 5.02629 10.8233 6.1169 10.8551 7.24138H7.75862V4.38698ZM7.75862 3.86974V0.683793C8.685 1.49198 9.42517 2.46259 9.9494 3.53793C9.24026 3.73707 8.50629 3.84853 7.75862 3.86974ZM10.4506 3.38069C9.95379 2.33974 9.26431 1.39138 8.4106 0.578534C9.92509 0.776638 11.2878 1.46147 12.3372 2.47112C11.7414 2.84922 11.1093 3.15336 10.4506 3.38069ZM4.5494 3.38069C3.89069 3.15336 3.25862 2.84922 2.66302 2.47112C3.71224 1.46147 5.07517 0.776638 6.58965 0.578534C5.73569 1.39138 5.04621 2.33974 4.5494 3.38069ZM4.14517 7.75862H7.24138V10.3547C6.38612 10.3774 5.54819 10.5109 4.74285 10.7532C4.37897 9.80793 4.1744 8.79802 4.14517 7.75862ZM7.24138 10.8719V14.3162C6.24983 13.4511 5.47241 12.4001 4.94379 11.2342C5.68526 11.0157 6.45543 10.8941 7.24138 10.8719ZM7.75862 14.3162V10.8719C8.54457 10.8939 9.31474 11.0157 10.0562 11.234C9.52759 12.4001 8.75017 13.4511 7.75862 14.3162ZM7.75862 10.3547V7.75862H10.8548C10.8256 8.79802 10.621 9.80793 10.2569 10.7534C9.45181 10.5109 8.61388 10.3774 7.75862 10.3547ZM11.3721 7.75862H14.4763C14.4173 9.36465 13.8145 10.8339 12.8452 11.9866C12.1862 11.5412 11.483 11.1843 10.7475 10.9182C11.129 9.92017 11.3428 8.85491 11.3721 7.75862ZM2.50629 12.374C3.11819 11.9674 3.76965 11.6405 4.45034 11.3961C4.95336 12.5237 5.67543 13.5512 6.5894 14.4215C4.99862 14.2133 3.57491 13.4684 2.50629 12.374ZM8.4106 14.4215C9.32457 13.5515 10.0466 12.524 10.5497 11.3961C11.2303 11.6405 11.8816 11.9674 12.4937 12.374C11.4251 13.4684 10.0014 14.2133 8.4106 14.4215Z" fill="black"/>
</g>
<defs>
<clipPath id="clip0_12_129">
<rect width="15" height="15" fill="white"/>
</clipPath>
</defs>
</svg>
