<svg width="15" height="15" viewBox="0 0 15 15" fill="none" xmlns="http://www.w3.org/2000/svg">
<g clip-path="url(#clip0_12_122)">
<path d="M7.5 6.5C8.465 6.5 9.25 5.71475 9.25 4.75C9.25 3.78525 8.465 3 7.5 3C6.535 3 5.75 3.78525 5.75 4.75C5.75 5.71475 6.535 6.5 7.5 6.5ZM7.5 3.5C8.18925 3.5 8.75 4.06075 8.75 4.75C8.75 5.43925 8.18925 6 7.5 6C6.81075 6 6.25 5.43925 6.25 4.75C6.25 4.06075 6.81075 3.5 7.5 3.5Z" fill="black"/>
<path d="M7.45576 13.6892L11.291 8.15C12.7295 6.23225 12.5215 3.08 10.8458 1.4045C9.94026 0.49875 8.73626 0 7.45576 0C6.17526 0 4.97126 0.49875 4.06576 1.40425C2.39001 3.07975 2.18201 6.232 3.61476 8.14225L7.45576 13.6892ZM4.41926 1.75775C5.23051 0.94675 6.30876 0.5 7.45576 0.5C8.60276 0.5 9.68101 0.94675 10.4923 1.75775C12.0048 3.27 12.191 6.117 10.8855 7.8575L7.45576 12.8107L4.02051 7.85C2.72051 6.117 2.90701 3.27 4.41926 1.75775Z" fill="black"/>
<path d="M10.5293 10.7518C10.3918 10.735 10.2677 10.8335 10.2517 10.9708C10.2358 11.108 10.3337 11.2323 10.4707 11.2483C13.0997 11.5578 14.5 12.3918 14.5 12.875C14.5 13.5535 11.837 14.5 7.5 14.5C3.163 14.5 0.5 13.5535 0.5 12.875C0.5 12.3918 1.90025 11.5578 4.52925 11.2483C4.66625 11.2323 4.76425 11.1078 4.74825 10.9708C4.732 10.8335 4.608 10.7345 4.47075 10.7518C1.8385 11.0618 0 11.9348 0 12.875C0 13.931 2.57625 15 7.5 15C12.4237 15 15 13.931 15 12.875C15 11.9348 13.1615 11.0618 10.5293 10.7518Z" fill="black"/>
</g>
<defs>
<clipPath id="clip0_12_122">
<rect width="15" height="15" fill="white"/>
</clipPath>
</defs>
</svg>
