<svg width="15" height="15" viewBox="0 0 15 15" fill="none" xmlns="http://www.w3.org/2000/svg">
<g clip-path="url(#clip0_12_109)">
<path d="M10.6488 0H4.35125C3.74425 0 3.25 0.49425 3.25 1.10125V13.8985C3.25 14.5058 3.74425 15 4.35125 15H10.6485C11.2558 15 11.75 14.5058 11.75 13.8988V1.10125C11.75 0.49425 11.2558 0 10.6488 0ZM3.75 2H11.25V11.5H3.75V2ZM4.35125 0.5H10.6485C10.9803 0.5 11.25 0.76975 11.25 1.10125V1.5H3.75V1.10125C3.75 0.76975 4.01975 0.5 4.35125 0.5ZM10.6488 14.5H4.35125C4.01975 14.5 3.75 14.2303 3.75 13.8988V12H11.25V13.8988C11.25 14.2303 10.9803 14.5 10.6488 14.5Z" fill="black"/>
<path d="M7.5 12.25C6.9485 12.25 6.5 12.6985 6.5 13.25C6.5 13.8015 6.9485 14.25 7.5 14.25C8.0515 14.25 8.5 13.8015 8.5 13.25C8.5 12.6985 8.0515 12.25 7.5 12.25ZM7.5 13.75C7.22425 13.75 7 13.5258 7 13.25C7 12.9742 7.22425 12.75 7.5 12.75C7.77575 12.75 8 12.9742 8 13.25C8 13.5258 7.77575 13.75 7.5 13.75Z" fill="black"/>
<path d="M6.5 1.25H7.5C7.63825 1.25 7.75 1.13825 7.75 1C7.75 0.86175 7.63825 0.75 7.5 0.75H6.5C6.36175 0.75 6.25 0.86175 6.25 1C6.25 1.13825 6.36175 1.25 6.5 1.25Z" fill="black"/>
<path d="M8.25 1.25H8.5C8.63825 1.25 8.75 1.13825 8.75 1C8.75 0.86175 8.63825 0.75 8.5 0.75H8.25C8.11175 0.75 8 0.86175 8 1C8 1.13825 8.11175 1.25 8.25 1.25Z" fill="black"/>
<path d="M14.153 1.14225C14.0553 1.0445 13.8973 1.0445 13.7995 1.14225C13.7018 1.24 13.7018 1.398 13.7995 1.49575C14.7335 2.42975 14.7335 3.9495 13.7995 4.88375C13.7018 4.9815 13.7018 5.1395 13.7995 5.23725C13.8483 5.286 13.9123 5.3105 13.9763 5.3105C14.0403 5.3105 14.1043 5.286 14.153 5.23725C15.282 4.1085 15.282 2.27125 14.153 1.14225Z" fill="black"/>
<path d="M13.1003 1.71125C13.0025 1.6135 12.8445 1.6135 12.7468 1.71125C12.649 1.809 12.649 1.967 12.7468 2.06475C13.056 2.374 13.2263 2.786 13.2263 3.2245C13.2263 3.663 13.056 4.07475 12.7468 4.384C12.649 4.48175 12.649 4.63975 12.7468 4.7375C12.7955 4.78625 12.8595 4.81075 12.9235 4.81075C12.9875 4.81075 13.0515 4.78625 13.1003 4.7375C13.504 4.334 13.7263 3.7965 13.7263 3.2245C13.7263 2.6525 13.5043 2.11475 13.1003 1.71125Z" fill="black"/>
<path d="M1.20123 1.49574C1.29898 1.39799 1.29898 1.23999 1.20123 1.14224C1.10348 1.04449 0.945477 1.04449 0.847727 1.14224C-0.281273 2.27124 -0.281273 4.10824 0.847727 5.23724C0.896477 5.28599 0.960477 5.31049 1.02448 5.31049C1.08848 5.31049 1.15248 5.28599 1.20123 5.23724C1.29898 5.13949 1.29898 4.98149 1.20123 4.88374C0.266976 3.94974 0.266976 2.42999 1.20123 1.49574Z" fill="black"/>
<path d="M2.25318 1.64225C2.15543 1.5445 1.99743 1.5445 1.89968 1.64225C1.49593 2.04575 1.27368 2.58325 1.27368 3.15525C1.27368 3.72725 1.49593 4.26475 1.89968 4.6685C1.94843 4.71725 2.01243 4.74175 2.07643 4.74175C2.14043 4.74175 2.20443 4.71725 2.25318 4.6685C2.35093 4.57075 2.35093 4.41275 2.25318 4.315C1.94393 4.00575 1.77368 3.59375 1.77368 3.15525C1.77368 2.71675 1.94368 2.305 2.25318 1.99575C2.35068 1.89825 2.35068 1.74 2.25318 1.64225Z" fill="black"/>
</g>
<defs>
<clipPath id="clip0_12_109">
<rect width="15" height="15" fill="white"/>
</clipPath>
</defs>
</svg>
