<svg width="40" height="40" viewBox="0 0 40 40" fill="none" xmlns="http://www.w3.org/2000/svg">
<g clip-path="url(#clip0_12_560)">
<path d="M39.3332 40H0.666809C0.298767 40 0 39.7021 0 39.3332V0.666809C0 0.297852 0.298767 0 0.666809 0H39.3332C39.7012 0 40 0.297852 40 0.666809V39.3332C40 39.7021 39.7012 40 39.3332 40ZM1.33331 38.6667H38.6667V1.33331H1.33331V38.6667Z" fill="#D32F2F"/>
<path d="M28.6667 33.3335C28.2986 33.3335 27.9999 33.0353 27.9999 32.6667V6.6666C27.9999 6.29794 28.2986 6.00009 28.6667 6.00009C29.0347 6.00009 29.3332 6.29794 29.3332 6.6666V32.6667C29.3332 33.0353 29.0347 33.3335 28.6667 33.3335Z" fill="#D32F2F"/>
<path d="M28.6667 33.3334C28.4961 33.3334 28.3252 33.2681 28.1952 33.1381L22.862 27.8045C22.6013 27.5439 22.6013 27.1228 22.862 26.8618C23.122 26.6012 23.5446 26.6012 23.8047 26.8618L29.1379 32.1954C29.3988 32.4561 29.3988 32.8772 29.1379 33.1381C29.0079 33.2681 28.8373 33.3334 28.6667 33.3334Z" fill="#D32F2F"/>
<path d="M28.6667 33.3334C28.4961 33.3334 28.3252 33.2681 28.1952 33.1381C27.9346 32.8772 27.9346 32.4561 28.1952 32.1954L33.5288 26.8618C33.7888 26.6012 34.2115 26.6012 34.4715 26.8618C34.7321 27.1228 34.7321 27.5439 34.4715 27.8045L29.1379 33.1381C29.0079 33.2681 28.8373 33.3334 28.6667 33.3334Z" fill="#D32F2F"/>
<path d="M17.3334 22.6666H7.99988C7.63214 22.6666 7.33337 22.3687 7.33337 22.0001C7.33337 21.6314 7.63214 21.3333 7.99988 21.3333H17.3334C17.7014 21.3333 17.9999 21.6314 17.9999 22.0001C17.9999 22.3687 17.7014 22.6666 17.3334 22.6666Z" fill="#D32F2F"/>
<path d="M17.3334 33.3334H7.99988C7.63214 33.3334 7.33337 33.0353 7.33337 32.6666C7.33337 32.298 7.63214 32.0001 7.99988 32.0001H17.3334C17.7014 32.0001 17.9999 32.298 17.9999 32.6666C17.9999 33.0353 17.7014 33.3334 17.3334 33.3334Z" fill="#D32F2F"/>
<path d="M7.99991 33.3334C7.84397 33.3334 7.68802 33.2794 7.56138 33.1687C7.28397 32.926 7.2559 32.5046 7.49882 32.2281L16.832 21.5613C17.0746 21.2839 17.4961 21.2561 17.7726 21.4981C18.05 21.7407 18.078 22.1618 17.8354 22.4386L8.50193 33.1055C8.37009 33.2565 8.18546 33.3334 7.99991 33.3334Z" fill="#D32F2F"/>
<path d="M7.33279 17.9999C7.23269 17.9999 7.13076 17.9773 7.03463 17.93C6.70535 17.7652 6.57198 17.3648 6.73678 17.0353L12.07 6.36877C12.2348 6.03948 12.6352 5.90734 12.9648 6.07061C13.2941 6.23541 13.4275 6.6361 13.2627 6.96538L7.92941 17.6322C7.81283 17.8653 7.57723 17.9999 7.33279 17.9999Z" fill="#D32F2F"/>
<path d="M18.0008 17.9998C17.756 17.9998 17.5208 17.8652 17.4039 17.6312L12.0706 6.96466C11.9061 6.63537 12.0392 6.23468 12.3688 6.06988C12.6981 5.906 13.0981 6.03784 13.2632 6.36804L18.5968 17.0345C18.7613 17.3638 18.6279 17.7645 18.2986 17.9293C18.2025 17.9772 18.1006 17.9998 18.0008 17.9998Z" fill="#D32F2F"/>
<path d="M17.3334 13.9999H7.99988C7.63214 13.9999 7.33337 13.7021 7.33337 13.3334C7.33337 12.9648 7.63214 12.6666 7.99988 12.6666H17.3334C17.7014 12.6666 17.9999 12.9648 17.9999 13.3334C17.9999 13.7021 17.7014 13.9999 17.3334 13.9999Z" fill="#D32F2F"/>
</g>
<defs>
<clipPath id="clip0_12_560">
<rect width="40" height="40" fill="white"/>
</clipPath>
</defs>
</svg>